<svg viewBox="4.60 10.82 116.97 116.97" xmlns="http://www.w3.org/2000/svg" xmlns:xlink="http://www.w3.org/1999/xlink" id="Camada_1" overflow="hidden"><g fill="#18577E"><g><path d="M49.99 83.23 45.88 83.52C44.9 81.66 43.55 80.01 41.94 78.67L43.04 74.71C43.19 74.17 42.96 73.59 42.48 73.3 41.74 72.85 41.07 72.49 40.43 72.2 39.76 71.89 39.05 71.61 38.26 71.34 37.73 71.16 37.15 71.36 36.83 71.81L34.49 75.2C32.44 74.83 30.28 74.87 28.22 75.31L25.8 71.99C25.47 71.54 24.88 71.36 24.36 71.55 22.95 72.07 21.54 72.79 20.18 73.68 19.71 73.98 19.5 74.56 19.67 75.09L20.88 79.04C19.34 80.41 18.09 82.02 17.17 83.87L13.07 83.68C12.49 83.64 12 84.01 11.82 84.54 11.33 86.03 11.01 87.59 10.87 89.19 10.82 89.74 11.14 90.26 11.66 90.46L15.54 91.99C15.66 93.95 16.15 95.9 16.97 97.69L14.25 100.78C13.88 101.2 13.83 101.81 14.14 102.28 15.01 103.62 16.04 104.87 17.19 105.98 17.59 106.36 18.19 106.44 18.67 106.16L22.29 104.11C23.1 104.69 23.95 105.19 24.81 105.59 25.67 105.99 26.6 106.32 27.56 106.57L28.3 110.64C28.4 111.19 28.84 111.6 29.4 111.66 30.13 111.74 30.87 111.78 31.61 111.78 32.48 111.78 33.35 111.73 34.2 111.62 34.75 111.55 35.19 111.12 35.28 110.57L35.91 106.51C37.82 105.98 39.63 105.11 41.22 103.93L44.89 105.9C45.37 106.16 45.97 106.07 46.37 105.68 47.51 104.54 48.51 103.29 49.33 101.97 49.63 101.49 49.57 100.87 49.19 100.46L46.41 97.46C47.24 95.58 47.68 93.59 47.74 91.54L51.56 89.92C52.07 89.7 52.38 89.17 52.31 88.62 52.12 87.02 51.77 85.49 51.26 84.06 51.07 83.53 50.54 83.18 50 83.23ZM46 89.56C45.53 89.76 45.23 90.23 45.24 90.74 45.29 92.85 44.86 94.88 43.96 96.79 43.94 96.83 43.92 96.87 43.9 96.91 43.86 96.98 43.82 97.06 43.78 97.13 43.55 97.59 43.63 98.15 43.98 98.53L46.67 101.44C46.23 102.06 45.75 102.67 45.22 103.25L41.67 101.34C41.22 101.1 40.68 101.15 40.29 101.47 38.62 102.84 36.62 103.8 34.52 104.26 34.02 104.37 33.63 104.78 33.55 105.29L32.94 109.22C32.15 109.28 31.36 109.28 30.57 109.24L29.85 105.31C29.76 104.81 29.37 104.41 28.87 104.31 27.78 104.09 26.76 103.75 25.83 103.32 24.9 102.89 23.99 102.32 23.12 101.64 22.72 101.33 22.17 101.28 21.73 101.54L18.23 103.53C17.69 102.96 17.19 102.35 16.73 101.71L19.36 98.72C19.7 98.33 19.77 97.77 19.53 97.31 18.53 95.41 17.99 93.27 17.97 91.12 17.97 90.61 17.65 90.16 17.18 89.97L13.44 88.49C13.55 87.72 13.7 86.97 13.9 86.23L17.88 86.41C18.42 86.42 18.87 86.14 19.08 85.67 19.12 85.59 19.15 85.51 19.18 85.42L19.23 85.28C20.12 83.39 21.41 81.77 23.06 80.45 23.46 80.13 23.63 79.6 23.48 79.11L22.31 75.29C22.98 74.9 23.65 74.55 24.33 74.26L26.67 77.47C26.97 77.89 27.51 78.07 28.01 77.94 30.2 77.34 32.56 77.3 34.73 77.82 35.23 77.94 35.75 77.74 36.05 77.32L38.32 74.04C38.68 74.18 39.03 74.33 39.36 74.48 39.68 74.63 40.01 74.8 40.36 74.99L39.3 78.82C39.16 79.32 39.34 79.85 39.76 80.16 41.57 81.5 43.03 83.3 43.99 85.37 44.21 85.84 44.68 86.12 45.21 86.09L49.18 85.81C49.39 86.52 49.56 87.25 49.68 88.01L45.98 89.58Z" /><path d="M35.4 82.93C34.27 82.41 33.07 82.14 31.84 82.14 28.58 82.14 25.57 84.04 24.19 86.99 23.24 89.03 23.14 91.31 23.91 93.42 24.68 95.53 26.23 97.22 28.28 98.16 29.41 98.68 30.61 98.95 31.84 98.95 35.1 98.95 38.11 97.05 39.49 94.1 40.44 92.07 40.54 89.79 39.77 87.68 39 85.56 37.45 83.88 35.41 82.93ZM37.22 93.04C36.25 95.11 34.13 96.45 31.83 96.45 30.96 96.45 30.12 96.26 29.32 95.9 27.88 95.23 26.79 94.05 26.25 92.57 25.71 91.09 25.78 89.49 26.45 88.06 27.42 85.99 29.54 84.65 31.84 84.65 32.71 84.65 33.55 84.84 34.35 85.21 35.79 85.88 36.87 87.06 37.42 88.55 37.96 90.03 37.89 91.63 37.22 93.05Z" /><path d="M56.96 89.93C56.27 89.93 55.71 90.49 55.71 91.18 55.71 91.87 56.27 92.43 56.96 92.43L85.03 92.43C85.72 92.43 86.28 91.87 86.28 91.18 86.28 90.49 85.72 89.93 85.03 89.93L56.96 89.93Z" /><path d="M91.4 81.88C91.4 85.2 94.1 87.91 97.43 87.91 100.76 87.91 103.46 85.21 103.46 81.88 103.46 78.55 100.76 75.85 97.43 75.85 94.1 75.85 91.4 78.55 91.4 81.88ZM97.42 78.36C99.36 78.36 100.95 79.94 100.95 81.89 100.95 83.84 99.37 85.42 97.42 85.42 95.47 85.42 93.89 83.84 93.89 81.89 93.89 79.94 95.47 78.36 97.42 78.36Z" /><path d="M85.89 54.1C81.24 51.92 60.43 51.91 55.37 54.08 52.29 55.4 49.86 60.92 47.22 67.46L46.63 68.91C46.25 69.84 46.35 70.9 46.91 71.73 47.47 72.57 48.41 73.07 49.42 73.07L93.02 73.07C94.05 73.07 95 72.55 95.56 71.69 96.12 70.82 96.2 69.74 95.77 68.8 94.39 65.8 89.62 55.86 85.89 54.11ZM93.46 70.33C93.4 70.42 93.27 70.57 93.03 70.57L49.43 70.57C49.19 70.57 49.05 70.43 49 70.34 48.94 70.26 48.86 70.08 48.95 69.86L49.55 68.39C51.1 64.55 53.98 57.4 56.37 56.38 58.53 55.45 64.7 54.98 70.81 54.98 76.92 54.98 82.87 55.44 84.84 56.36 86.93 57.34 90.79 63.88 93.51 69.83 93.61 70.06 93.53 70.24 93.47 70.33Z" /><path d="M112.44 62.66C109.59 61.29 103.71 61.18 102.31 62.18 101.74 62.59 101.06 63.35 100.24 64.52 99.94 63.85 99.64 63.16 99.34 62.46 96.63 56.22 93.84 49.77 89.42 48.22 84.03 46.32 56.9 43.9 51.1 48.41 47.38 51.31 43.56 60.46 41.01 67.09 40.76 67.73 41.08 68.46 41.73 68.71 42.37 68.96 43.1 68.64 43.35 67.99 44.76 64.33 49.04 53.19 52.64 50.39 57.1 46.91 82.63 48.48 88.6 50.58 91.99 51.77 94.68 57.98 97.06 63.46 97.41 64.27 97.76 65.08 98.11 65.86 98.45 66.63 99.16 67.14 99.99 67.21 100.83 67.28 101.64 66.9 102.11 66.21 103.13 64.72 103.63 64.3 103.7 64.25 104.51 63.88 109.52 63.79 111.65 65.07 111.97 65.26 112.17 65.46 112.17 65.61 112.2 66.08 110.36 67.68 104.71 69.36 103.91 69.6 103.32 70.22 103.13 71.03 102.94 71.84 103.2 72.69 103.81 73.25 106 75.28 107.3 77.16 107.3 78.27L107.3 101.98C107.3 102.91 106.55 103.66 105.62 103.66L98.75 103.66C97.82 103.66 97.07 102.91 97.07 101.98L97.07 100.05 101.01 100.05C101.7 100.05 102.26 99.49 102.26 98.8 102.26 98.11 101.7 97.55 101.01 97.55L55.43 97.55C54.74 97.55 54.18 98.11 54.18 98.8 54.18 99.49 54.74 100.05 55.43 100.05L94.56 100.05 94.56 101.98C94.56 104.29 96.44 106.16 98.74 106.16L105.61 106.16C107.92 106.16 109.79 104.28 109.79 101.98L109.79 78.27C109.79 76.43 108.43 74.2 105.74 71.65 114.84 68.89 114.69 66.32 114.65 65.47 114.61 64.65 114.18 63.5 112.42 62.66Z" /><path d="M20.65 41.91 20.91 41.91 20.91 49.99C20.91 52.58 24.39 56.51 27.76 57.41 28.1 61.29 30.34 67.18 37.18 67.18 37.87 67.18 38.43 66.62 38.43 65.93 38.43 65.24 37.87 64.68 37.18 64.68 31.75 64.68 30.55 59.69 30.28 57.44 33.71 56.54 36.84 52.06 36.84 49.87L36.84 41.92 37.09 41.92C37.78 41.92 38.34 41.36 38.34 40.67 38.34 39.98 37.78 39.42 37.09 39.42L33.59 39.42 33.59 30.66C33.59 29.97 33.03 29.41 32.34 29.41 31.65 29.41 31.09 29.97 31.09 30.66L31.09 39.42 26.64 39.42 26.64 30.66C26.64 29.97 26.08 29.41 25.39 29.41 24.7 29.41 24.14 29.97 24.14 30.66L24.14 39.42 20.64 39.42C19.95 39.42 19.39 39.98 19.39 40.67 19.39 41.36 19.95 41.92 20.64 41.92ZM34.35 49.86C34.35 50.91 31.56 55.1 29.11 55.1 26.66 55.1 23.41 51.36 23.41 49.99L23.41 41.91 34.35 41.91 34.35 49.86Z" /><path d="M98.07 39.18C100.76 39.18 102.95 41.37 102.95 44.06 102.95 44.75 103.51 45.31 104.2 45.31 104.89 45.31 105.45 44.75 105.45 44.06 105.45 39.99 102.14 36.68 98.07 36.68 97.38 36.68 96.82 37.24 96.82 37.93 96.82 38.62 97.38 39.18 98.07 39.18Z" /><path d="M98.07 34.49C103.35 34.49 107.64 38.78 107.64 44.06 107.64 44.75 108.2 45.31 108.89 45.31 109.58 45.31 110.14 44.75 110.14 44.06 110.14 37.4 104.73 31.99 98.07 31.99 97.38 31.99 96.82 32.55 96.82 33.24 96.82 33.93 97.38 34.49 98.07 34.49Z" /><path d="M98.07 26.83C97.38 26.83 96.82 27.39 96.82 28.08 96.82 28.77 97.38 29.33 98.07 29.33 106.47 29.33 112.8 35.66 112.8 44.06 112.8 44.75 113.36 45.31 114.05 45.31 114.74 45.31 115.3 44.75 115.3 44.06 115.3 34.24 107.89 26.83 98.07 26.83Z" /><path d="M96.93 49.5C99.24 49.5 101.12 47.62 101.12 45.31 101.12 43 99.24 41.12 96.93 41.12 94.62 41.12 92.74 43 92.74 45.31 92.74 47.62 94.62 49.5 96.93 49.5ZM96.93 43.62C97.86 43.62 98.62 44.38 98.62 45.31 98.62 46.24 97.86 47 96.93 47 96 47 95.24 46.24 95.24 45.31 95.24 44.38 96 43.62 96.93 43.62Z" /></g></g></svg>